<?xml version="1.0" encoding="UTF-8"?>
<svg width="512" height="512" viewBox="0 0 512 512" xmlns="http://www.w3.org/2000/svg">
  <!-- Background circle -->
  <circle cx="256" cy="256" r="256" fill="#87CEEB"/>
  
  <!-- Bird body -->
  <ellipse cx="256" cy="280" rx="120" ry="100" fill="#FFD700"/>
  
  <!-- Bird head -->
  <circle cx="256" cy="200" r="80" fill="#FFD700"/>
  
  <!-- Bird beak -->
  <path d="M 176 200 L 140 190 L 176 210 Z" fill="#FF6B35"/>
  
  <!-- Bird eye -->
  <circle cx="240" cy="180" r="15" fill="#000"/>
  <circle cx="245" cy="175" r="5" fill="#FFF"/>
  
  <!-- Wing -->
  <ellipse cx="300" cy="250" rx="60" ry="40" fill="#FFA500" transform="rotate(15 300 250)"/>
  
  <!-- Wing detail -->
  <ellipse cx="310" cy="240" rx="40" ry="25" fill="#FF8C00" transform="rotate(15 310 240)"/>
  
  <!-- Tail feathers -->
  <ellipse cx="350" cy="300" rx="30" ry="15" fill="#FFA500" transform="rotate(30 350 300)"/>
  <ellipse cx="360" cy="320" rx="25" ry="12" fill="#FF8C00" transform="rotate(45 360 320)"/>
  
  <!-- Small decorative elements (sparkles) -->
  <circle cx="180" cy="150" r="3" fill="#FFF" opacity="0.8"/>
  <circle cx="350" cy="180" r="2" fill="#FFF" opacity="0.8"/>
  <circle cx="320" cy="140" r="2" fill="#FFF" opacity="0.8"/>
  <circle cx="200" cy="120" r="2" fill="#FFF" opacity="0.8"/>
</svg> 